<?xml version="1.0" encoding="UTF-8"?>
<svg width="7px" height="10px" viewBox="0 0 7 10" version="1.1" xmlns="http://www.w3.org/2000/svg" xmlns:xlink="http://www.w3.org/1999/xlink">
    <!-- Generator: Sketch 46 (44423) - http://www.bohemiancoding.com/sketch -->
    <title></title>
    <desc>Created with Sketch.</desc>
    <defs></defs>
    <g id="Health-Status" stroke="none" stroke-width="1" fill="none" fill-rule="evenodd">
        <path d="M4.39286323,7.96874758 C4.39286323,7.80914917 4.26228272,7.67856866 4.10268431,7.67856866 L2.36161081,7.67856866 C2.20201241,7.67856866 2.07143189,7.80914917 2.07143189,7.96874758 L2.07143189,9.70982108 C2.07143189,9.86941949 2.20201241,10 2.36161081,10 L4.10268431,10 C4.26228272,10 4.39286323,9.86941949 4.39286323,9.70982108 L4.39286323,7.96874758 Z M6.68527668,3.61606382 C6.68527668,1.95478952 4.94420317,0.714274645 3.39174597,0.714274645 C1.91183349,0.714274645 0.809153602,1.34541379 0.025670525,2.64396445 C-0.0541286773,2.77454496 -0.0251107856,2.93414336 0.0982152543,3.02845151 L1.28794882,3.93526063 C1.3459846,3.97153299 1.40402038,3.99329641 1.46931064,3.99329641 C1.54910984,3.99329641 1.63616352,3.94976957 1.6941993,3.87722484 C2.1222132,3.34039385 2.29632055,3.1662865 2.4704279,3.04296046 C2.63002631,2.93414336 2.9274597,2.83258074 3.25391098,2.83258074 C3.84152329,2.83258074 4.37109981,3.19530439 4.37109981,3.60155487 C4.37109981,4.06584114 4.13895668,4.30523875 3.58036226,4.5591453 C2.94196864,4.84932422 2.07143189,5.6037894 2.07143189,6.48158063 L2.07143189,6.80803191 C2.07143189,6.96763031 2.17299451,7.21428239 2.33259292,7.21428239 L4.07366642,7.21428239 C4.2405193,7.21428239 4.36384534,7.0256661 4.36384534,6.86606769 C4.36384534,6.65568798 4.63226084,6.15512935 5.06027474,5.90847727 C5.74944967,5.5239902 6.68527668,4.99441368 6.68527668,3.61606382 Z" id="" fill="#666666"></path>
    </g>
</svg>